<svg width="10" height="11" viewBox="0 0 10 11" fill="none" xmlns="http://www.w3.org/2000/svg">
<path d="M0.791016 8.96925L1.96192 7.3265C2.67752 8.07249 3.78771 8.69513 5.18771 8.69513C6.37521 8.69513 6.95282 8.14788 6.95282 7.56929C6.95282 5.77383 1.11022 7.00637 1.11022 3.18734C1.11022 1.49859 2.57081 0.0986328 4.95951 0.0986328C6.57291 0.0986328 7.91121 0.58519 8.91562 1.51425L7.71342 3.0963C6.89302 2.33562 5.79662 1.98612 4.76182 1.98612C3.83372 1.98612 3.31681 2.39632 3.31681 3.00525C3.31681 4.61764 9.14371 3.53782 9.14371 7.3265C9.14371 9.18267 7.82022 10.5826 5.08192 10.5826C3.13472 10.5826 1.73482 9.92768 0.791016 8.96925Z" fill="#828A99"/>
</svg>
